<?xml version="1.0" standalone="no"?>
<!DOCTYPE svg PUBLIC "-//W3C//DTD SVG 20010904//EN"
 "http://www.w3.org/TR/2001/REC-SVG-20010904/DTD/svg10.dtd">
<svg version="1.0" xmlns="http://www.w3.org/2000/svg"
 width="704.000000pt" height="704.000000pt" viewBox="0 0 704.000000 704.000000"
 preserveAspectRatio="xMidYMid meet">
<metadata>
Created by potrace 1.14, written by Peter Selinger 2001-2017
</metadata>
<g transform="translate(0.000000,704.000000) scale(0.100000,-0.100000)"
fill="#000000" stroke="none">
<path d="M2110 6216 c0 -2 8 -10 18 -17 15 -13 16 -12 3 4 -13 16 -21 21 -21
13z"/>
<path d="M1436 6175 c-3 -8 -13 -15 -21 -15 -10 0 -13 5 -9 13 5 8 2 7 -10 -2
-9 -8 -33 -15 -52 -17 -19 -1 -40 -7 -48 -13 -7 -6 -17 -7 -21 -3 -5 4 -5 1
-1 -6 4 -7 1 -14 -6 -17 -10 -4 -13 -39 -12 -150 0 -80 3 -148 6 -151 3 -3 2
-21 -2 -40 -5 -20 -4 -34 2 -34 5 0 6 -5 2 -12 -11 -18 -10 -118 1 -118 7 0 7
-3 0 -8 -9 -6 -11 -22 -5 -47 1 -5 1 -14 0 -20 -5 -22 -3 -95 3 -101 3 -3 3
-12 1 -19 -9 -23 -10 -155 -1 -155 5 0 5 -5 1 -12 -11 -18 -10 -118 1 -118 7
0 7 -3 0 -8 -11 -8 -13 -37 -3 -48 4 -3 3 -14 -2 -24 -5 -10 -7 -19 -5 -21 5
-6 7 -79 3 -172 -2 -42 1 -77 5 -77 5 0 5 -5 1 -12 -11 -18 -10 -118 1 -118 6
0 5 -3 -1 -8 -6 -4 -9 -16 -7 -27 2 -11 4 -24 4 -30 0 -5 -1 -31 -2 -57 -1
-27 0 -51 4 -54 3 -3 3 -12 1 -19 -9 -23 -10 -155 -1 -155 5 0 5 -5 1 -12 -11
-18 -10 -118 1 -118 7 0 7 -3 0 -8 -11 -8 -13 -37 -3 -48 4 -3 3 -14 -2 -24
-5 -10 -7 -19 -5 -21 5 -6 7 -79 3 -172 -2 -42 1 -77 5 -77 5 0 5 -5 1 -12
-11 -18 -10 -118 1 -118 6 0 6 -3 0 -8 -10 -6 -11 -20 -5 -39 1 -5 1 -12 0
-18 -5 -24 -3 -105 3 -111 3 -3 3 -12 1 -19 -9 -23 -10 -155 -1 -155 5 0 5 -5
1 -11 -5 -9 -7 -206 -4 -479 0 -8 0 -235 -1 -504 l-2 -489 28 -33 c16 -18 43
-37 60 -40 42 -10 405 -11 405 -1 0 5 4 5 10 2 18 -11 80 -12 80 -1 0 7 3 8 8
1 8 -12 81 -13 99 -2 6 4 14 4 16 0 3 -5 60 -7 126 -7 110 1 120 0 109 -15
-12 -14 -11 -15 6 -1 11 8 42 15 76 16 33 0 72 8 91 18 64 33 84 46 72 46 -9
0 -8 10 3 36 12 28 15 73 14 193 -1 86 -2 170 -4 186 -1 17 2 38 6 47 5 9 4
19 -1 22 -8 5 -6 67 4 94 2 6 0 12 -6 12 -6 0 -6 7 1 20 6 11 7 20 3 20 -5 0
-7 42 -6 93 4 149 4 200 0 230 -3 15 0 30 5 33 4 3 5 10 1 17 -5 9 -8 60 -4
70 1 1 3 65 4 142 2 94 8 148 17 165 14 26 50 56 63 52 4 -1 7 2 7 8 0 11 88
14 114 4 9 -3 13 -11 9 -18 -4 -8 -2 -8 7 1 8 7 21 8 34 3 11 -4 24 -8 29 -9
4 0 9 -2 12 -2 3 -1 10 -3 15 -4 6 -1 16 -3 24 -4 8 0 22 -8 30 -17 10 -10 16
-11 16 -3 0 8 4 8 13 1 6 -5 27 -13 45 -17 17 -3 32 -11 32 -15 0 -5 7 -6 17
-3 9 4 14 2 11 -3 -3 -5 6 -10 20 -10 15 -1 41 -7 57 -14 17 -7 35 -14 40 -16
58 -19 85 -30 85 -37 0 -5 4 -6 9 -2 5 3 12 1 16 -5 4 -6 11 -8 16 -5 5 4 9 2
9 -2 0 -5 10 -9 21 -10 12 -1 31 -10 42 -20 11 -10 17 -12 13 -6 -5 9 -2 11 8
7 9 -3 13 -10 10 -15 -3 -5 2 -6 11 -3 9 4 22 -1 31 -12 9 -11 13 -13 9 -6 -3
6 -1 12 4 12 6 0 11 -4 11 -10 0 -5 3 -9 8 -8 13 4 87 -25 117 -46 45 -31 61
-48 79 -83 19 -38 20 -46 4 -38 -7 4 -4 -1 6 -9 11 -9 17 -16 13 -16 -4 0 -3
-10 4 -21 9 -17 8 -20 -3 -13 -10 6 -10 4 1 -9 12 -15 12 -20 -5 -32 -16 -13
-16 -14 -2 -9 15 5 17 1 15 -28 -2 -18 -6 -38 -10 -45 -4 -6 -3 -15 3 -18 8
-5 7 -11 -1 -21 -7 -9 -8 -14 -1 -14 11 0 11 -18 -1 -36 -3 -6 -3 -14 0 -18
10 -10 10 -76 0 -76 -5 0 -5 -6 1 -12 6 -7 10 -17 10 -23 0 -5 -4 -16 -10 -22
-6 -7 -6 -13 -1 -13 5 0 9 -9 9 -20 0 -11 -4 -20 -9 -20 -6 0 -6 -5 -1 -12 14
-20 10 -53 -6 -50 -10 1 -8 -3 4 -13 14 -10 15 -15 6 -15 -11 0 -11 -3 -2 -12
8 -8 8 -17 1 -31 -8 -14 -8 -18 0 -13 6 4 11 3 11 -3 0 -5 -5 -13 -10 -16 -6
-4 -7 -12 -3 -18 10 -14 10 -218 0 -234 -4 -6 -3 -14 2 -18 6 -3 8 -11 6 -18
-11 -39 -15 -68 -7 -63 13 8 10 -27 -3 -36 -6 -5 -6 -8 1 -8 12 0 12 -29 0
-48 -4 -6 -4 -12 1 -12 4 0 8 -16 8 -35 0 -19 -2 -35 -5 -35 -3 0 -6 -9 -6
-20 0 -11 3 -20 6 -20 7 0 4 -95 -4 -109 -4 -6 -4 -11 1 -11 4 0 8 -52 8 -115
0 -66 -4 -115 -9 -115 -6 0 -5 -5 2 -12 8 -8 8 -17 1 -31 -6 -11 -7 -17 -2
-14 10 6 10 -53 0 -70 -4 -6 -3 -14 2 -17 5 -3 6 -21 2 -39 -5 -18 -5 -41 -1
-52 4 -11 4 -28 -1 -37 -6 -10 -5 -19 1 -23 6 -4 8 -10 6 -13 -11 -19 16 -108
39 -130 14 -13 23 -27 21 -31 -3 -4 3 -7 12 -7 54 0 73 -5 66 -16 -5 -7 -3 -8
7 -2 18 11 139 13 145 2 3 -5 11 -5 17 -1 17 10 97 11 103 1 3 -4 11 -5 17 -1
19 12 161 11 176 -1 11 -8 13 -8 8 1 -5 8 2 11 23 9 16 -1 32 -5 36 -9 4 -3
15 -2 26 4 14 7 23 7 33 -1 7 -6 16 -7 19 -2 6 11 77 9 95 -2 9 -6 12 -5 8 1
-8 13 52 11 73 -2 8 -5 11 -4 7 2 -7 11 107 12 118 1 4 -4 15 -3 24 2 9 4 35
13 59 19 51 14 73 44 80 109 3 26 10 50 16 54 7 5 7 8 1 8 -7 0 -10 58 -10
159 0 105 3 157 10 153 7 -4 7 -1 0 9 -7 9 -10 195 -10 534 0 423 3 519 13
517 8 -1 11 2 7 8 -3 6 -11 7 -17 4 -8 -5 -9 -1 -5 10 4 10 7 27 7 37 0 11 4
18 9 14 6 -3 8 4 6 15 -2 13 1 20 11 20 8 0 12 5 9 11 -4 5 5 21 19 34 14 13
26 21 26 17 0 -4 4 -2 8 3 16 23 138 69 155 58 6 -3 7 -1 3 5 -4 8 1 12 13 13
29 2 31 3 77 25 22 11 48 20 57 18 10 -1 17 1 17 5 0 4 19 14 43 21 23 8 52
20 64 28 13 8 30 12 38 8 9 -3 14 -2 10 3 -7 12 45 38 73 36 11 -1 19 2 16 7
-3 4 5 12 18 17 13 5 83 38 156 75 74 36 139 63 145 59 7 -3 9 -3 5 2 -4 4 0
15 10 24 29 27 63 81 65 101 1 11 4 20 8 20 4 0 8 55 9 123 1 67 3 154 4 192
1 39 -2 80 -6 91 -4 12 -4 25 -1 28 8 8 6 377 -2 398 -4 9 -3 23 1 30 4 7 4
10 0 7 -4 -4 -19 4 -34 18 -36 33 -87 28 -183 -19 -42 -20 -82 -38 -90 -40 -7
-2 -22 -11 -33 -20 -11 -10 -28 -18 -37 -18 -10 0 -21 -5 -24 -11 -4 -6 -14
-8 -23 -4 -9 3 -13 3 -9 -1 6 -6 -114 -61 -153 -69 -8 -2 -27 -8 -42 -14 -16
-6 -28 -7 -28 -3 0 4 -4 2 -8 -5 -4 -6 -20 -13 -37 -16 -16 -3 -45 -10 -64
-16 -19 -6 -37 -9 -39 -6 -3 3 -10 1 -16 -4 -15 -12 -100 -25 -212 -34 -28 -2
-57 -7 -63 -11 -6 -4 -11 -2 -11 4 0 6 -5 8 -12 3 -19 -11 -152 -10 -160 2 -5
6 -8 5 -8 -3 0 -8 -5 -10 -12 -5 -7 4 -35 9 -63 9 -84 3 -86 4 -79 15 5 8 1 8
-13 0 -11 -6 -22 -8 -25 -6 -3 3 -27 10 -54 15 -27 6 -58 12 -69 15 -11 3 -29
7 -40 9 -57 12 -74 19 -68 29 3 6 1 7 -5 3 -12 -7 -122 23 -122 34 0 3 -9 6
-19 7 -37 3 -272 123 -265 135 4 6 3 8 -3 5 -14 -9 -75 22 -68 34 4 5 -1 6 -9
3 -9 -4 -18 1 -22 10 -3 9 -15 16 -25 16 -10 0 -19 5 -19 10 0 6 -7 10 -15 10
-8 0 -15 5 -15 10 0 6 -6 10 -14 10 -8 0 -22 10 -30 22 -9 12 -16 19 -16 15 0
-8 -113 64 -118 76 -2 4 -10 7 -19 7 -8 0 -29 10 -46 22 -18 13 -34 23 -37 23
-3 1 -27 11 -55 24 -127 59 -157 71 -173 71 -10 0 -22 4 -27 8 -8 7 -66 27
-107 38 -5 1 -10 3 -13 4 -7 3 -13 5 -70 15 -27 4 -57 10 -65 12 -8 2 -27 4
-42 5 -16 0 -28 4 -28 9 0 4 -10 5 -22 1 -16 -4 -19 -2 -13 8 6 10 4 11 -6 4
-17 -11 -69 -12 -69 -2 0 4 -7 4 -17 1 -10 -4 -14 -2 -10 4 3 5 -3 9 -16 8
-28 -2 -69 24 -60 38 3 5 1 7 -5 3 -10 -6 -54 45 -51 61 1 4 -1 16 -6 26 -4 9
-5 31 -3 47 3 16 0 32 -6 34 -8 3 -7 7 1 13 7 5 9 14 3 23 -5 8 -5 21 1 32 5
10 6 18 2 18 -7 0 -9 44 -3 60 6 15 4 36 -4 48 -5 6 -5 12 0 12 5 0 7 76 4
171 -3 94 -2 173 3 176 4 2 5 9 1 14 -3 5 -5 87 -4 182 1 94 2 186 1 202 0 17
0 46 0 65 -1 60 -1 72 -4 183 -1 59 0 107 3 107 8 0 3 77 -5 90 -4 7 -1 16 6
21 11 7 10 9 -4 9 -10 0 -16 4 -12 9 3 6 -8 26 -25 45 -24 26 -42 37 -76 42
-24 3 -47 11 -50 16 -3 5 -11 5 -19 -2 -10 -8 -15 -8 -20 0 -4 7 -11 7 -18 2
-7 -5 -66 -8 -132 -7 -66 0 -130 -3 -142 -7 -13 -4 -23 -4 -23 0 0 4 -112 7
-249 6 -206 -1 -248 1 -244 12 3 8 3 14 0 14 -3 0 -7 -7 -11 -15z"/>
<path d="M1795 6180 c-3 -5 -1 -10 4 -10 6 0 11 5 11 10 0 6 -2 10 -4 10 -3 0
-8 -4 -11 -10z"/>
<path d="M4536 6173 c-6 -7 -53 -10 -151 -13 -11 0 -57 1 -102 2 -49 2 -85 -1
-87 -7 -3 -7 -5 -7 -5 0 -1 6 -24 9 -53 8 -80 -3 -111 -3 -258 0 -74 1 -149
-2 -167 -7 -34 -10 -94 -58 -97 -79 -1 -7 -4 -16 -7 -22 -3 -5 -6 -103 -5
-218 1 -132 -3 -207 -9 -207 -7 0 -7 -3 0 -8 12 -8 13 -121 2 -139 -5 -7 -4
-13 2 -13 6 0 6 -11 1 -30 -5 -16 -5 -30 0 -30 9 0 8 -19 -3 -36 -3 -6 -3 -14
0 -18 11 -10 12 -37 2 -30 -5 3 -9 1 -9 -5 0 -5 5 -13 10 -16 7 -4 7 -13 0
-26 -6 -10 -7 -19 -3 -19 10 0 9 -77 0 -87 -10 -9 -9 -25 1 -19 12 7 9 -88 -3
-96 -6 -5 -5 -8 3 -8 9 0 10 -5 3 -19 -6 -10 -7 -21 -3 -25 11 -11 9 -70 -2
-78 -7 -5 -6 -8 3 -8 11 0 11 -3 0 -17 -8 -9 -9 -14 -3 -10 6 3 11 0 11 -8 0
-8 -5 -11 -11 -8 -6 4 -5 -1 3 -10 11 -14 11 -17 0 -17 -9 0 -10 -3 -3 -8 6
-4 11 -49 11 -112 1 -134 6 -199 16 -193 4 2 7 -2 7 -11 0 -8 5 -16 11 -18 6
-2 12 -17 12 -32 0 -17 3 -23 7 -16 5 9 11 7 21 -7 15 -20 144 -103 160 -103
5 0 9 -4 9 -10 0 -5 7 -10 16 -10 9 0 12 -5 8 -12 -4 -6 -3 -8 4 -4 14 8 65
-11 58 -23 -4 -5 3 -7 14 -4 12 3 20 0 20 -6 0 -7 4 -10 8 -7 5 3 21 -2 36
-10 16 -7 35 -14 43 -14 8 0 12 -3 10 -7 -3 -5 5 -9 16 -10 26 -3 46 -8 67
-16 20 -9 128 -37 160 -43 14 -2 36 -6 50 -8 14 -3 29 -5 33 -5 5 -1 5 -7 1
-13 -6 -10 -4 -10 7 -2 8 6 23 10 34 8 35 -6 178 -17 225 -17 135 0 168 56
165 280 -1 84 2 130 8 126 6 -3 7 -1 3 6 -14 22 -17 63 -5 55 8 -5 9 -3 3 7
-11 18 -12 1399 -1 1392 5 -3 2 8 -7 24 -12 24 -12 33 -3 43 9 10 9 11 0 6 -8
-4 -13 -2 -13 7 0 7 -10 23 -22 34 -42 37 -80 48 -165 47 -45 0 -80 3 -77 8 6
10 0 11 -10 1z"/>
<path d="M2476 5673 c-6 -14 -5 -15 5 -6 7 7 10 15 7 18 -3 3 -9 -2 -12 -12z"/>
<path d="M4876 5538 c3 -5 10 -6 15 -3 13 9 11 12 -6 12 -8 0 -12 -4 -9 -9z"/>
<path d="M4870 4906 c0 -2 7 -7 16 -10 8 -3 12 -2 9 4 -6 10 -25 14 -25 6z"/>
<path d="M3540 4766 c0 -2 8 -10 18 -17 15 -13 16 -12 3 4 -13 16 -21 21 -21
13z"/>
<path d="M2520 4680 c-9 -6 -10 -10 -3 -10 6 0 15 5 18 10 8 12 4 12 -15 0z"/>
<path d="M2515 4561 c-3 -5 -2 -12 3 -15 5 -3 9 1 9 9 0 17 -3 19 -12 6z"/>
<path d="M4150 4166 c0 -2 7 -7 16 -10 8 -3 12 -2 9 4 -6 10 -25 14 -25 6z"/>
<path d="M3910 4079 c0 -5 5 -7 10 -4 6 3 10 8 10 11 0 2 -4 4 -10 4 -5 0 -10
-5 -10 -11z"/>
<path d="M3675 4051 c-3 -5 -2 -12 3 -15 5 -3 9 1 9 9 0 17 -3 19 -12 6z"/>
<path d="M5580 3966 c0 -2 8 -10 18 -17 15 -13 16 -12 3 4 -13 16 -21 21 -21
13z"/>
<path d="M5989 3783 c-13 -16 -12 -17 4 -4 16 13 21 21 13 21 -2 0 -10 -8 -17
-17z"/>
<path d="M4635 3760 c-3 -5 -1 -10 4 -10 6 0 11 5 11 10 0 6 -2 10 -4 10 -3 0
-8 -4 -11 -10z"/>
<path d="M2535 3240 c3 -5 8 -10 11 -10 2 0 4 5 4 10 0 6 -5 10 -11 10 -5 0
-7 -4 -4 -10z"/>
<path d="M2573 3231 c0 -11 5 -18 9 -15 4 3 5 11 1 19 -7 21 -12 19 -10 -4z"/>
<path d="M2555 3020 c-3 -5 -1 -10 4 -10 6 0 11 5 11 10 0 6 -2 10 -4 10 -3 0
-8 -4 -11 -10z"/>
<path d="M3435 2971 c-3 -5 -2 -12 3 -15 5 -3 9 1 9 9 0 17 -3 19 -12 6z"/>
<path d="M3400 2880 c-9 -6 -10 -10 -3 -10 6 0 15 5 18 10 8 12 4 12 -15 0z"/>
<path d="M5035 2589 c-4 -6 -5 -12 -2 -15 2 -3 7 2 10 11 7 17 1 20 -8 4z"/>
<path d="M4955 2541 c-3 -5 -2 -12 3 -15 5 -3 9 1 9 9 0 17 -3 19 -12 6z"/>
<path d="M4876 2453 c-6 -14 -5 -15 5 -6 7 7 10 15 7 18 -3 3 -9 -2 -12 -12z"/>
<path d="M4839 2338 c-5 -18 -6 -38 -1 -34 7 8 12 36 6 36 -2 0 -4 -1 -5 -2z"/>
<path d="M2480 2080 c-9 -6 -10 -10 -3 -10 6 0 15 5 18 10 8 12 4 12 -15 0z"/>
<path d="M4876 1873 c-6 -14 -5 -15 5 -6 7 7 10 15 7 18 -3 3 -9 -2 -12 -12z"/>
<path d="M1586 1678 c3 -5 10 -6 15 -3 13 9 11 12 -6 12 -8 0 -12 -4 -9 -9z"/>
<path d="M4566 798 c3 -5 10 -6 15 -3 13 9 11 12 -6 12 -8 0 -12 -4 -9 -9z"/>
</g>
</svg>
